<?xml version="1.0" encoding="UTF-8"?>
<svg version="1.1" xmlns="http://www.w3.org/2000/svg" width="100" height="100">
<path d="M0 0 C1.02009431 0.97949354 2.02161418 1.97884321 3 3 C3.99 3.66 4.98 4.32 6 5 C14 13 14 13 14.875 14.875 C15.9135385 17.12846962 15.9135385 17.12846962 18 18.8125 C20.59356739 21.64921433 21.247731 24.3385137 22 28 C22.19722656 28.83273438 22.39445312 29.66546875 22.59765625 30.5234375 C23.87847806 36.71548995 24.1255972 42.58996418 23.8125 48.875 C23.78244873 49.58833496 23.75239746 50.30166992 23.72143555 51.03662109 C23.41021016 55.68156459 22.28988758 58.97499142 20 63 C19.649375 63.9075 19.29875 64.815 18.9375 65.75 C18 68 18 68 16 70 C15.34 70.99 14.68 71.98 14 73 C11.66666667 75.33333333 9.33333333 77.66666667 7 80 C6.443125 80.598125 5.88625 81.19625 5.3125 81.8125 C4 83 4 83 2 83 C1.1646875 83.928125 1.1646875 83.928125 0.3125 84.875 C-3.64221055 88.50905835 -8.83655492 89.07322781 -14 90 C-14.928125 90.185625 -15.85625 90.37125 -16.8125 90.5625 C-27.35368788 92.00932971 -39.90732893 91.33256609 -48.8125 85 C-49.534375 84.34 -50.25625 83.68 -51 83 C-51.639375 82.525625 -52.27875 82.05125 -52.9375 81.5625 C-60.7972973 75.60810811 -60.7972973 75.60810811 -62 72 C-62.66 71.34 -63.32 70.68 -64 70 C-73.20810104 60.19782793 -72.09919597 45.59788821 -72 33 C-71.34 33 -70.68 33 -70 33 C-70.20109375 32.44441406 -70.4021875 31.88882813 -70.609375 31.31640625 C-71.11402671 28.32382163 -70.40944503 26.7226886 -69.25 23.9375 C-68.73179688 22.65166016 -68.73179688 22.65166016 -68.203125 21.33984375 C-67.02608321 19.05072676 -65.89235704 17.70823582 -64 16 C-62.9926892 14.67218122 -61.99387334 13.33790641 -61 12 C-56.41580042 6.20790021 -56.41580042 6.20790021 -54 5 C-53.67 4.34 -53.34 3.68 -53 3 C-52.01 2.67 -51.02 2.34 -50 2 C-49.46375 1.54625 -48.9275 1.0925 -48.375 0.625 C-36.13380583 -7.75055391 -12.57894103 -7.56824253 0 0 Z M-37 9 C-37 15.27 -37 21.54 -37 28 C-36.34 28 -35.68 28 -35 28 C-35 28.66 -35 29.32 -35 30 C-31.0555603 28.66811127 -28.6940678 27.05347394 -25.79296875 24.0859375 C-24.66665039 22.94511719 -24.66665039 22.94511719 -23.51757812 21.78125 C-22.74865234 20.9871875 -21.97972656 20.193125 -21.1875 19.375 C-20.39923828 18.57320312 -19.61097656 17.77140625 -18.79882812 16.9453125 C-16.85893327 14.97014683 -14.92639916 12.98831573 -13 11 C-13.33 10.01 -13.66 9.02 -14 8 C-17.87875927 7.0954386 -21.52002321 6.83574753 -25.5 6.8125 C-27.15515625 6.79123047 -27.15515625 6.79123047 -28.84375 6.76953125 C-32.40542645 6.86947614 -32.40542645 6.86947614 -37 9 Z M-13 8 C-12 10 -12 10 -12 10 Z M-2 14 C-5.5862524 17.38786397 -9.14490238 20.80167375 -12.68115234 24.24169922 C-13.88658283 25.40700262 -15.09910981 26.56501283 -16.31884766 27.71533203 C-18.07570144 29.3746625 -19.80497937 31.05894403 -21.53125 32.75 C-22.07809448 33.2555542 -22.62493896 33.7611084 -23.18835449 34.28198242 C-25.9164756 37.00681003 -27.39237172 39.20109261 -27.66992188 43.01367188 C-27.32810218 47.52204005 -24.96714646 50.06714031 -21.75 53.03125 C-20.95094238 53.81332825 -20.95094238 53.81332825 -20.13574219 54.61120605 C-18.44176756 56.26064811 -16.72209874 57.87999436 -15 59.5 C-13.84193193 60.61791135 -12.68565991 61.73768646 -11.53125 62.859375 C-8.70783033 65.59492462 -5.86103076 68.3038336 -3 71 C4.6979523 65.94966043 4.6979523 65.94966043 9 58 C9.66 57.01 10.32 56.02 11 55 C12.38572019 51.16941044 12.18380953 47.14761089 12.1875 43.125 C12.20586914 42.08279297 12.20586914 42.08279297 12.22460938 41.01953125 C12.23702874 36.62307607 11.61908407 33.08290765 10 29 C9.34 29 8.68 29 8 29 C7.79375 27.783125 7.5875 26.56625 7.375 25.3125 C6.18960009 20.45923227 4.00766746 18.83876445 0 16 C-0.66 15.34 -1.32 14.68 -2 14 Z M-51.4375 19.3125 C-54.13816191 22.14490151 -55.76106993 24.2832098 -57 28 C-57.66 28.99 -58.32 29.98 -59 31 C-60.2772917 34.83187511 -60.14510286 38.44708317 -60.125 42.4375 C-60.12886719 43.20126953 -60.13273437 43.96503906 -60.13671875 44.75195312 C-60.13542969 45.49251953 -60.13414063 46.23308594 -60.1328125 46.99609375 C-60.13168457 47.66825928 -60.13055664 48.3404248 -60.12939453 49.03295898 C-59.99199609 51.12167459 -59.56530559 52.98830925 -59 55 C-58.34 55 -57.68 55 -57 55 C-56.938125 56.051875 -56.87625 57.10375 -56.8125 58.1875 C-55.62112207 63.77781182 -52.61681026 65.92212649 -48 69 C-48 51.84 -48 34.68 -48 17 C-49.43907605 16.88528993 -49.43907605 16.88528993 -51.4375 19.3125 Z M-35 56 C-35 56.66 -35 57.32 -35 58 C-35.66 58 -36.32 58 -37 58 C-37 64.27 -37 70.54 -37 77 C-36.34 77.33 -35.68 77.66 -35 78 C-34.34 77.67 -33.68 77.34 -33 77 C-33 77.66 -33 78.32 -33 79 C-30.22858283 79.08089542 -27.45952181 79.14044062 -24.6875 79.1875 C-23.90181641 79.21263672 -23.11613281 79.23777344 -22.30664062 79.26367188 C-21.54931641 79.27333984 -20.79199219 79.28300781 -20.01171875 79.29296875 C-18.96697388 79.31653442 -18.96697388 79.31653442 -17.90112305 79.34057617 C-15.45510217 78.90238443 -14.57297914 77.86562642 -13 76 C-16.98192769 71.10791741 -21.27191277 66.56127325 -25.6875 62.0625 C-26.25815186 61.47057861 -26.82880371 60.87865723 -27.41674805 60.26879883 C-28.8869444 58.78647535 -30.43878068 57.3861293 -32 56 C-32.99 56 -33.98 56 -35 56 Z M-13 76 C-12 78 -12 78 -12 78 Z " fill="#EAEAEA" transform="translate(74,7)"/>
<path d="" fill="#000000" transform="translate(0,0)"/>
<path d="" fill="#000000" transform="translate(0,0)"/>
<path d="" fill="#000000" transform="translate(0,0)"/>
<path d="" fill="#000000" transform="translate(0,0)"/>
<path d="" fill="#000000" transform="translate(0,0)"/>
<path d="" fill="#000000" transform="translate(0,0)"/>
<path d="" fill="#000000" transform="translate(0,0)"/>
<path d="" fill="#000000" transform="translate(0,0)"/>
<path d="" fill="#000000" transform="translate(0,0)"/>
<path d="" fill="#000000" transform="translate(0,0)"/>
<path d="" fill="#000000" transform="translate(0,0)"/>
<path d="" fill="#000000" transform="translate(0,0)"/>
<path d="" fill="#000000" transform="translate(0,0)"/>
<path d="" fill="#000000" transform="translate(0,0)"/>
<path d="" fill="#000000" transform="translate(0,0)"/>
<path d="" fill="#000000" transform="translate(0,0)"/>
<path d="" fill="#000000" transform="translate(0,0)"/>
<path d="" fill="#000000" transform="translate(0,0)"/>
<path d="" fill="#000000" transform="translate(0,0)"/>
<path d="" fill="#000000" transform="translate(0,0)"/>
<path d="" fill="#000000" transform="translate(0,0)"/>
<path d="" fill="#000000" transform="translate(0,0)"/>
<path d="" fill="#000000" transform="translate(0,0)"/>
<path d="" fill="#000000" transform="translate(0,0)"/>
<path d="" fill="#000000" transform="translate(0,0)"/>
<path d="" fill="#000000" transform="translate(0,0)"/>
<path d="" fill="#000000" transform="translate(0,0)"/>
<path d="" fill="#000000" transform="translate(0,0)"/>
<path d="" fill="#000000" transform="translate(0,0)"/>
<path d="" fill="#000000" transform="translate(0,0)"/>
<path d="" fill="#000000" transform="translate(0,0)"/>
<path d="" fill="#000000" transform="translate(0,0)"/>
<path d="" fill="#000000" transform="translate(0,0)"/>
<path d="" fill="#000000" transform="translate(0,0)"/>
<path d="" fill="#000000" transform="translate(0,0)"/>
<path d="" fill="#000000" transform="translate(0,0)"/>
<path d="" fill="#000000" transform="translate(0,0)"/>
<path d="" fill="#000000" transform="translate(0,0)"/>
<path d="" fill="#000000" transform="translate(0,0)"/>
<path d="" fill="#000000" transform="translate(0,0)"/>
<path d="" fill="#000000" transform="translate(0,0)"/>
<path d="" fill="#000000" transform="translate(0,0)"/>
<path d="" fill="#000000" transform="translate(0,0)"/>
<path d="" fill="#000000" transform="translate(0,0)"/>
<path d="" fill="#000000" transform="translate(0,0)"/>
<path d="" fill="#000000" transform="translate(0,0)"/>
<path d="" fill="#000000" transform="translate(0,0)"/>
<path d="" fill="#000000" transform="translate(0,0)"/>
<path d="" fill="#000000" transform="translate(0,0)"/>
<path d="" fill="#000000" transform="translate(0,0)"/>
<path d="" fill="#000000" transform="translate(0,0)"/>
<path d="" fill="#000000" transform="translate(0,0)"/>
<path d="" fill="#000000" transform="translate(0,0)"/>
<path d="" fill="#000000" transform="translate(0,0)"/>
<path d="" fill="#000000" transform="translate(0,0)"/>
<path d="" fill="#000000" transform="translate(0,0)"/>
<path d="" fill="#000000" transform="translate(0,0)"/>
<path d="" fill="#000000" transform="translate(0,0)"/>
<path d="" fill="#000000" transform="translate(0,0)"/>
<path d="" fill="#000000" transform="translate(0,0)"/>
<path d="" fill="#000000" transform="translate(0,0)"/>
<path d="" fill="#000000" transform="translate(0,0)"/>
<path d="" fill="#000000" transform="translate(0,0)"/>
<path d="" fill="#000000" transform="translate(0,0)"/>
<path d="" fill="#000000" transform="translate(0,0)"/>
<path d="" fill="#000000" transform="translate(0,0)"/>
<path d="" fill="#000000" transform="translate(0,0)"/>
<path d="" fill="#000000" transform="translate(0,0)"/>
<path d="" fill="#000000" transform="translate(0,0)"/>
<path d="" fill="#000000" transform="translate(0,0)"/>
<path d="" fill="#000000" transform="translate(0,0)"/>
<path d="" fill="#000000" transform="translate(0,0)"/>
<path d="" fill="#000000" transform="translate(0,0)"/>
<path d="" fill="#000000" transform="translate(0,0)"/>
<path d="" fill="#000000" transform="translate(0,0)"/>
<path d="" fill="#000000" transform="translate(0,0)"/>
<path d="" fill="#000000" transform="translate(0,0)"/>
<path d="" fill="#000000" transform="translate(0,0)"/>
<path d="" fill="#000000" transform="translate(0,0)"/>
<path d="" fill="#000000" transform="translate(0,0)"/>
<path d="" fill="#000000" transform="translate(0,0)"/>
<path d="" fill="#000000" transform="translate(0,0)"/>
<path d="" fill="#000000" transform="translate(0,0)"/>
<path d="" fill="#000000" transform="translate(0,0)"/>
<path d="" fill="#000000" transform="translate(0,0)"/>
<path d="" fill="#000000" transform="translate(0,0)"/>
<path d="" fill="#000000" transform="translate(0,0)"/>
<path d="" fill="#000000" transform="translate(0,0)"/>
<path d="" fill="#000000" transform="translate(0,0)"/>
<path d="" fill="#000000" transform="translate(0,0)"/>
<path d="" fill="#000000" transform="translate(0,0)"/>
<path d="" fill="#000000" transform="translate(0,0)"/>
<path d="" fill="#000000" transform="translate(0,0)"/>
<path d="" fill="#000000" transform="translate(0,0)"/>
<path d="" fill="#000000" transform="translate(0,0)"/>
<path d="" fill="#000000" transform="translate(0,0)"/>
<path d="" fill="#000000" transform="translate(0,0)"/>
<path d="" fill="#000000" transform="translate(0,0)"/>
<path d="" fill="#000000" transform="translate(0,0)"/>
<path d="" fill="#000000" transform="translate(0,0)"/>
<path d="" fill="#000000" transform="translate(0,0)"/>
<path d="" fill="#000000" transform="translate(0,0)"/>
<path d="" fill="#000000" transform="translate(0,0)"/>
<path d="" fill="#000000" transform="translate(0,0)"/>
<path d="" fill="#000000" transform="translate(0,0)"/>
<path d="" fill="#000000" transform="translate(0,0)"/>
<path d="" fill="#000000" transform="translate(0,0)"/>
<path d="" fill="#000000" transform="translate(0,0)"/>
<path d="" fill="#000000" transform="translate(0,0)"/>
<path d="" fill="#000000" transform="translate(0,0)"/>
<path d="" fill="#000000" transform="translate(0,0)"/>
<path d="" fill="#000000" transform="translate(0,0)"/>
<path d="" fill="#000000" transform="translate(0,0)"/>
<path d="" fill="#000000" transform="translate(0,0)"/>
<path d="" fill="#000000" transform="translate(0,0)"/>
<path d="" fill="#000000" transform="translate(0,0)"/>
<path d="" fill="#000000" transform="translate(0,0)"/>
</svg>
